<svg width="148" height="148" viewBox="0 0 148 148" fill="none" xmlns="http://www.w3.org/2000/svg">
<path fill-rule="evenodd" clip-rule="evenodd" d="M15.375 36.3125C15.375 35.2019 15.8162 34.1368 16.6015 33.3515C17.3868 32.5662 18.4519 32.125 19.5625 32.125H128.438C129.548 32.125 130.613 32.5662 131.399 33.3515C132.184 34.1368 132.625 35.2019 132.625 36.3125C132.625 37.4231 132.184 38.4882 131.399 39.2735C130.613 40.0588 129.548 40.5 128.438 40.5H19.5625C18.4519 40.5 17.3868 40.0588 16.6015 39.2735C15.8162 38.4882 15.375 37.4231 15.375 36.3125ZM74 57.25C75.1106 57.25 76.1757 57.6912 76.961 58.4765C77.7463 59.2618 78.1875 60.3269 78.1875 61.4375V109.954L96.1602 91.9727C96.9465 91.1864 98.013 90.7447 99.125 90.7447C100.237 90.7447 101.303 91.1864 102.09 91.9727C102.876 92.759 103.318 93.8255 103.318 94.9375C103.318 96.0495 102.876 97.116 102.09 97.9023L76.9648 123.027C76.5758 123.417 76.1137 123.727 75.6049 123.938C75.0962 124.149 74.5508 124.257 74 124.257C73.4492 124.257 72.9038 124.149 72.3951 123.938C71.8863 123.727 71.4242 123.417 71.0352 123.027L45.9102 97.9023C45.1239 97.116 44.6822 96.0495 44.6822 94.9375C44.6822 93.8255 45.1239 92.759 45.9102 91.9727C46.6966 91.1864 47.763 90.7447 48.875 90.7447C49.987 90.7447 51.0535 91.1864 51.8398 91.9727L69.8125 109.954V61.4375C69.8125 60.3269 70.2537 59.2618 71.039 58.4765C71.8243 57.6912 72.8894 57.25 74 57.25Z" fill="#CCCCD2"/>
<rect x="3.5" y="3.5" width="141" height="141" stroke="#CCCCD2" stroke-width="7" stroke-linejoin="round"/>
</svg>
