<svg width="36" height="54" viewBox="0 0 36 54" fill="none" xmlns="http://www.w3.org/2000/svg">
<path d="M17.25 42.6755C15.6868 42.6755 14.3568 43.1758 13.2543 44.1787C12.151 45.1816 11.5997 46.3998 11.5997 47.8276C11.5997 49.4442 12.1575 50.7104 13.2714 51.633C14.3894 52.5548 15.6868 53.016 17.1749 53.016C18.6884 53.016 20.007 52.5614 21.1356 51.6496C22.2641 50.7402 22.8252 49.4673 22.8252 47.8284C22.8252 46.3998 22.287 45.1824 21.2098 44.1795C20.1301 43.1758 18.8115 42.6755 17.25 42.6755Z" fill="#7475C4"/>
<path d="M33.183 7.1769C31.7511 4.9657 29.7002 3.19259 27.0834 1.9139C24.4854 0.641002 21.4585 0 18.0809 0C14.4473 0 11.214 0.771024 8.47413 2.29403C5.72852 3.8162 3.61243 5.77067 2.17561 8.10776C0.729009 10.4523 0 12.8093 0 15.1149C0 16.3489 0.502315 17.4975 1.49308 18.5303C2.48874 19.5688 3.72822 20.0955 5.17483 20.0955C7.63748 20.0955 9.32545 18.6214 10.1825 15.7385C10.9629 13.3476 11.9243 11.5281 13.0366 10.3215C14.0836 9.18521 15.7813 8.61046 18.0817 8.61046C20.0657 8.61046 21.6305 9.17527 22.8725 10.338C24.0956 11.4875 24.6901 12.859 24.6901 14.5269C24.6975 15.3346 24.4971 16.1302 24.1087 16.835C23.6959 17.5876 23.1822 18.2783 22.5822 18.8872C21.9461 19.5332 20.8975 20.5079 19.4639 21.78C17.7939 23.2666 16.4459 24.5726 15.4617 25.65C14.4209 26.8037 13.585 28.1319 12.9909 29.5755C12.3703 31.0696 12.0564 32.8485 12.0564 34.865C12.0564 36.5885 12.5293 37.9226 13.4647 38.832C14.3902 39.7347 15.5424 40.1926 16.892 40.1926C19.4721 40.1926 21.0924 38.7607 21.5735 36.0825C21.823 34.9686 22.0048 34.1901 22.128 33.7454C22.2397 33.3429 22.4011 32.9304 22.6091 32.518C22.8105 32.1188 23.1302 31.6642 23.5583 31.164C24.0059 30.6414 24.6151 30.0244 25.358 29.3362C28.1378 26.8136 30.0982 24.9858 31.186 23.9042C32.308 22.787 33.2866 21.4496 34.0979 19.9241C34.9264 18.3588 35.348 16.5211 35.348 14.4598C35.3464 11.8478 34.6174 9.39971 33.1781 7.17939" fill="#7475C4"/>
</svg>
