<svg width="29" height="30" viewBox="0 0 29 30" fill="none" xmlns="http://www.w3.org/2000/svg">
<path d="M25.7602 24.6997L18.4054 17.3449C19.5467 15.8694 20.1641 14.0654 20.1641 12.168C20.1641 9.89668 19.2776 7.76699 17.6747 6.16123C16.0718 4.55547 13.9364 3.67188 11.668 3.67188C9.39951 3.67188 7.26416 4.5583 5.66123 6.16123C4.05547 7.76416 3.17188 9.89668 3.17188 12.168C3.17188 14.4364 4.0583 16.5718 5.66123 18.1747C7.26416 19.7805 9.39668 20.6641 11.668 20.6641C13.5654 20.6641 15.3666 20.0467 16.8421 18.9082L24.1969 26.2602C24.2184 26.2817 24.244 26.2989 24.2722 26.3105C24.3004 26.3222 24.3306 26.3282 24.3611 26.3282C24.3916 26.3282 24.4219 26.3222 24.45 26.3105C24.4782 26.2989 24.5038 26.2817 24.5254 26.2602L25.7602 25.0282C25.7817 25.0067 25.7989 24.9811 25.8105 24.9529C25.8222 24.9247 25.8282 24.8945 25.8282 24.864C25.8282 24.8335 25.8222 24.8033 25.8105 24.7751C25.7989 24.7469 25.7817 24.7213 25.7602 24.6997ZM16.1539 16.6539C14.9531 17.8519 13.3615 18.5117 11.668 18.5117C9.97441 18.5117 8.38281 17.8519 7.18203 16.6539C5.98408 15.4531 5.32422 13.8615 5.32422 12.168C5.32422 10.4744 5.98408 8.87998 7.18203 7.68203C8.38281 6.48408 9.97441 5.82422 11.668 5.82422C13.3615 5.82422 14.956 6.48125 16.1539 7.68203C17.3519 8.88281 18.0117 10.4744 18.0117 12.168C18.0117 13.8615 17.3519 15.456 16.1539 16.6539Z" fill="white"/>
</svg>
